<svg width="154" height="31" viewBox="0 0 154 31" fill="none" xmlns="http://www.w3.org/2000/svg">
<g clip-path="url(#clip0_1423_2988)">
<path d="M59.5111 3.79416V22.2184H56.7254V20.3288C55.7449 21.7244 54.2229 22.5662 52.2123 22.5662C48.7045 22.5662 45.7891 19.5389 45.7891 15.6421C45.7891 11.7189 48.7045 8.71805 52.2123 8.71805C54.224 8.71805 55.7461 9.5598 56.7254 10.929V3.78955L59.5111 3.79416ZM56.7254 15.6421C56.7254 13.1928 54.9709 11.4299 52.6501 11.4299C50.3292 11.4299 48.5736 13.1928 48.5736 15.6421C48.5736 18.0914 50.3281 19.8578 52.6501 19.8578C54.9721 19.8578 56.7254 18.0902 56.7254 15.6421Z" fill="#1C2530"/>
<path d="M68.4365 19.9605C69.9845 19.9605 71.1443 19.25 71.7637 18.3277L74.0598 19.6968C72.8728 21.4874 70.9378 22.5664 68.4105 22.5664C64.1536 22.5664 61.3938 19.592 61.3938 15.6423C61.3938 11.7456 64.1536 8.71826 68.204 8.71826C72.0481 8.71826 74.6792 11.8769 74.6792 15.6688C74.6715 16.0658 74.6368 16.4617 74.5754 16.8537H64.3081C64.747 18.9069 66.3729 19.9605 68.4365 19.9605ZM71.8675 14.5369C71.4805 12.2718 69.8547 11.2977 68.1781 11.2977C66.0885 11.2977 64.6703 12.5643 64.2822 14.5369H71.8675Z" fill="#1C2530"/>
<path d="M82.727 19.9605C84.275 19.9605 85.4348 19.25 86.0543 18.3277L88.3503 19.6968C87.1634 21.4874 85.2295 22.5664 82.701 22.5664C78.4441 22.5664 75.6843 19.592 75.6843 15.6423C75.6843 11.7456 78.4441 8.71826 82.4946 8.71826C86.3386 8.71826 88.9697 11.8769 88.9697 15.6688C88.9618 16.0657 88.9275 16.4616 88.867 16.8537H78.5998C79.0375 18.9069 80.6623 19.9605 82.727 19.9605ZM86.1581 14.5369C85.7711 12.2718 84.1452 11.2977 82.4686 11.2977C80.3791 11.2977 78.9608 12.5643 78.5738 14.5369H86.1581Z" fill="#1C2530"/>
<path d="M104.498 15.6423C104.498 19.5655 101.584 22.5663 98.0749 22.5663C96.0632 22.5663 94.5412 21.7246 93.5618 20.3554V27.4948H90.7761V9.07054H93.5618V10.9659C94.5423 9.5703 96.0643 8.72854 98.0749 8.72854C101.584 8.71818 104.498 11.7455 104.498 15.6423ZM101.712 15.6423C101.712 13.193 99.958 11.43 97.636 11.43C95.314 11.43 93.5607 13.193 93.5607 15.6423C93.5607 18.0915 95.3151 19.858 97.636 19.858C99.9569 19.858 101.712 18.0904 101.712 15.6423Z" fill="#1C2530"/>
<path d="M120.104 15.6423C120.104 19.539 117.19 22.5663 113.681 22.5663C111.67 22.5663 110.147 21.7246 109.168 20.3289V22.2243H106.387V3.80005H109.173V10.9395C110.153 9.5703 111.675 8.72855 113.686 8.72855C117.19 8.71818 120.104 11.719 120.104 15.6423ZM117.319 15.6423C117.319 13.193 115.564 11.43 113.242 11.43C110.92 11.43 109.167 13.193 109.167 15.6423C109.167 18.0915 110.921 19.858 113.242 19.858C115.563 19.858 117.319 18.0904 117.319 15.6423Z" fill="#1C2530"/>
<path d="M121.987 3.00439H124.778V22.2244H121.992L121.987 3.00439Z" fill="#1C2530"/>
<path d="M138.831 9.06006V22.2242H136.045V20.5395C135.194 21.9075 133.801 22.5662 132.047 22.5662C129.157 22.5662 127.094 20.566 127.094 17.1426V9.06006H129.879V16.8535C129.879 18.8537 131.016 19.9074 132.769 19.9074C134.601 19.9074 136.041 18.8019 136.041 16.1154V9.06006H138.831Z" fill="#1C2530"/>
<path d="M147.757 19.9605C149.305 19.9605 150.465 19.25 151.085 18.3277L153.381 19.6968C152.194 21.4874 150.26 22.5664 147.731 22.5664C143.474 22.5664 140.715 19.592 140.715 15.6423C140.715 11.7456 143.474 8.71826 147.525 8.71826C151.369 8.71826 154 11.8769 154 15.6688C153.992 16.0657 153.958 16.4616 153.897 16.8537H143.63C144.071 18.9069 145.694 19.9605 147.757 19.9605ZM151.188 14.5369C150.801 12.2718 149.176 11.2977 147.499 11.2977C145.409 11.2977 143.991 12.5643 143.604 14.5369H151.188Z" fill="#1C2530"/>
<path d="M36.6727 15.4994C36.6727 20.5396 32.7181 31 21.1026 31C9.48703 31 0.00390625 15.4994 0.00390625 15.4994C0.00390625 15.4994 9.4938 0 21.1082 0C32.7226 0 36.6727 10.4604 36.6727 15.4994Z" fill="#1CDBF1"/>
<path d="M26.0506 18.7076C29.8324 18.7076 32.8981 15.5787 32.8981 11.719C32.8981 7.85935 29.8324 4.73047 26.0506 4.73047C22.2688 4.73047 19.2031 7.85935 19.2031 11.719C19.2031 15.5787 22.2688 18.7076 26.0506 18.7076Z" fill="#F4F6F5"/>
<path d="M26.0504 16.1338C28.4395 16.1338 30.3762 14.1572 30.3762 11.7189C30.3762 9.28058 28.4395 7.30396 26.0504 7.30396C23.6613 7.30396 21.7246 9.28058 21.7246 11.7189C21.7246 14.1572 23.6613 16.1338 26.0504 16.1338Z" fill="#1C2530"/>
</g>
<defs>
<clipPath id="clip0_1423_2988">
<rect width="154" height="31" fill="white"/>
</clipPath>
</defs>
</svg>
